<svg width="72" height="72" viewBox="0 0 72 72" fill="none" xmlns="http://www.w3.org/2000/svg">
<path d="M68.8229 26.1056L66.5991 25.7877L63.8582 25.5495L63.1042 23.682L64.8911 21.5764L66.2018 19.7877C66.6906 19.1214 66.9168 18.3975 66.9168 17.5625C66.9168 17.4439 66.9168 17.3642 66.8769 17.2446C66.8372 16.2909 66.4415 15.5374 65.8045 14.9007L57.1076 6.19822C56.4706 5.56162 55.7208 5.08606 54.7644 5.08606H54.4068C53.5731 5.08606 52.8446 5.3056 52.2227 5.76174L50.4359 7.07307L48.3305 8.86091L46.4242 8.14544L46.1862 5.36422L45.8686 3.17886C45.6153 1.43764 43.9225 0 42.1358 0H29.8645C28.0768 0 26.3452 1.43764 26.0919 3.17886L25.7741 5.36422L25.5352 8.14544L23.6687 8.86091L21.5642 7.07307L19.7774 5.76174C19.1819 5.32431 18.4667 5.08606 17.672 5.08606H17.3145C16.3587 5.08606 15.5674 5.52266 14.8922 6.19822L6.19553 14.9007C5.6 15.4966 5.24235 16.2909 5.16282 17.2446C5.12294 17.404 5.12294 17.5625 5.12294 17.682C5.12294 18.4374 5.30259 19.1656 5.75835 19.7877L7.06894 21.5764L8.93541 23.682C8.65753 24.1983 8.41941 24.7951 8.14071 25.5495L5.36106 25.7877L3.17694 26.1056C1.47588 26.3532 0 28.0926 0 29.8805V42.1594C0 43.9473 1.46482 45.6452 3.17706 45.8944L5.36118 46.2122L8.14082 46.4503C8.45859 47.2845 8.73729 47.9202 8.93553 48.3577L7.06906 50.4633L5.75847 52.252C5.32129 52.8478 5.12306 53.5235 5.12306 54.278C5.12306 54.3975 5.12306 54.556 5.16294 54.7154C5.24259 55.6691 5.55859 56.5024 6.19565 57.139L14.8924 65.8416C15.5481 66.4976 16.3588 66.9138 17.3146 66.9138H17.6721C18.4668 66.9138 19.1819 66.6757 19.7775 66.2391L21.5644 64.9276L23.6688 63.0602C24.3839 63.417 25.0193 63.696 25.5353 63.8943L25.7742 66.6358L26.092 68.8609C26.3351 70.564 28.0771 72 29.8646 72H42.1358C43.9226 72 45.6254 70.564 45.8686 68.8609L46.1862 66.6358L46.4242 63.8943C47.0596 63.6562 47.6951 63.3781 48.3305 63.0602L50.4359 64.9276L52.2227 66.2391C52.8446 66.6951 53.5732 66.8749 54.3671 66.8749H54.7645C55.7209 66.8749 56.5114 66.4374 57.1078 65.8416L65.8046 57.139C66.4798 56.4634 66.8373 55.6691 66.8771 54.7154C66.9169 54.5959 66.9169 54.517 66.9169 54.3975C66.9169 53.5634 66.6526 52.8675 66.2019 52.252L64.8912 50.4633L63.1044 48.3577L63.8584 46.4503L66.5992 46.2122L68.8231 45.8944C70.564 45.6452 72 43.9472 72 42.1593V29.8805C72 28.0926 70.564 26.3548 68.8229 26.1056ZM68.068 42.0796L66.0424 42.3974L65.0502 42.4771L60.92 42.7951C60.7607 43.6292 60.4906 44.4099 60.2051 45.0991C60.1678 45.2194 59.9764 45.7391 59.5298 46.7284C59.4205 46.9716 59.0926 47.6821 58.4971 48.835L61.0785 52.0138L61.7139 52.7284L62.9449 54.4375L54.4067 62.9805L52.7782 61.7488L51.9845 61.113L48.8074 58.4105C48.0127 58.9278 47.3001 59.2888 46.7028 59.5634C46.3471 59.7262 45.2727 60.1196 45.0745 60.239L42.7708 60.9536L42.4532 65.0065L42.3735 66.0797L42.0559 68.1065H29.9441L29.6264 66.0797L29.5068 65.0065L29.1892 60.9536L26.9254 60.239L25.2971 59.5634C24.6895 59.3108 23.9864 58.9278 23.1926 58.4105L20.0155 61.113L19.2607 61.7488L17.5535 62.9805L9.01518 54.4375L10.2462 52.7284L10.8816 52.0138L13.5818 48.835C13.0658 48.0398 12.6693 47.3413 12.4304 46.7284L11.7949 45.0991L11.0799 42.7951L6.98953 42.4771L5.95682 42.3974L3.89212 42.0796V29.96L5.95682 29.6023L6.98953 29.5234L11.0799 29.2056L11.7949 26.9406L12.4304 25.3113C12.6693 24.6984 13.0658 23.9998 13.5818 23.2056L10.8816 20.0268L10.2462 19.1918L9.01518 17.5625L17.5535 9.01947L19.2607 10.252L20.0155 10.8878L23.1926 13.5098L24.066 13.0334C24.5811 12.7519 25.0208 12.5604 25.2971 12.4375C26.0934 12.0832 26.65 11.8882 26.9254 11.8018C27.654 11.5169 28.3945 11.2448 29.1892 11.0863L29.5068 6.91392L29.6264 5.9602L29.9441 3.89433H42.056L42.3736 5.9602L42.4533 6.91392L42.7709 11.0863C43.6047 11.2448 44.3791 11.5297 45.0746 11.8018C45.6269 11.973 46.1786 12.1747 46.7029 12.4375L47.8941 13.0334L48.8075 13.5098L51.9846 10.8878L52.7784 10.252L54.4068 9.01947L62.9451 17.5625L61.714 19.1918L61.0786 20.0268L58.4972 23.2056C59.0927 24.3577 59.4147 25.0706 59.5299 25.3113C59.8519 25.9844 60.0687 26.5082 60.2052 26.9406C60.5042 27.6637 60.7609 28.4105 60.9201 29.2056L65.0504 29.5234L66.0425 29.6023L68.0681 29.96L68.068 42.0796Z" fill="currentColor"/>
<path d="M36.0195 23.682C32.6043 23.682 29.7152 24.8841 27.3228 27.2983C24.9497 29.6921 23.7484 32.5828 23.7484 35.96C23.7484 39.3771 24.9396 42.278 27.3228 44.6626C29.7051 47.0463 32.6043 48.2382 36.0195 48.2382C39.3956 48.2382 42.2939 47.0463 44.717 44.6626C47.1392 42.278 48.3304 39.3773 48.3304 35.96C48.3304 32.5828 47.1392 29.7219 44.717 27.2983C42.2939 24.8739 39.3956 23.682 36.0195 23.682ZM41.8975 41.9601C40.2691 43.5894 38.2831 44.4245 36.0195 44.4245C33.6769 44.4245 31.6715 43.6098 30.0228 41.9601C28.375 40.3113 27.5608 38.3048 27.5608 35.96C27.5608 33.695 28.3944 31.7089 30.0228 30.0795C31.691 28.4105 33.6769 27.5762 36.0195 27.5762C38.2831 27.5762 40.2488 28.4299 41.8975 30.0795C43.5452 31.7283 44.3994 33.695 44.3994 35.96C44.3994 38.3048 43.5648 40.2919 41.8975 41.9601Z" fill="black"/>
</svg>
