<svg width="72" height="72" viewBox="0 0 72 72" fill="none" xmlns="http://www.w3.org/2000/svg" color="--bg-color">
<path d="M8.99994 11.2502V2.25001C8.99994 1.00622 10.0062 0 11.2503 0C12.4938 0 13.5 1.00622 13.5 2.25001V11.2502C13.5 12.4937 12.4938 13.4999 11.2503 13.4999C10.0062 13.5001 8.99994 12.4937 8.99994 11.2502ZM47.2505 13.5001C48.4937 13.5001 49.5005 12.4939 49.5005 11.2504V2.25001C49.5005 1.00622 48.4937 0 47.2505 0C46.0067 0 44.9997 1.00622 44.9997 2.25001V11.2502C44.9997 12.4937 46.0067 13.5001 47.2505 13.5001ZM72 53.9994C72 63.9409 63.9407 72 54 72C44.06 72 36.0001 63.9409 36.0001 53.9994C36.0001 44.0595 44.0598 35.9999 54 35.9999C63.9407 35.9999 72 44.0593 72 53.9994ZM67.5005 53.9994C67.5005 46.5561 61.4448 40.4997 54.0001 40.4997C46.556 40.4997 40.5003 46.556 40.5003 53.9994C40.5003 61.4442 46.556 67.4998 54.0001 67.4998C61.4448 67.4998 67.5005 61.4442 67.5005 53.9994ZM18.0002 27H8.99994V35.9999H18.0002V27ZM8.99994 49.5H18.0002V40.4997H8.99994V49.5ZM22.4999 35.9999H31.5003V27H22.4999V35.9999ZM22.4999 49.5H31.5003V40.4997H22.4999V49.5ZM4.5002 53.552V22.4998H54.0001V31.5H58.5003V13.9485C58.5003 11.215 56.3202 8.99991 53.6268 8.99991H51.7501V11.2504C51.7501 13.7286 49.7326 15.7502 47.2506 15.7502C44.7679 15.7502 42.7506 13.7286 42.7506 11.2504V8.99991H15.7499V11.2504C15.7499 13.7286 13.7328 15.7502 11.2504 15.7502C8.76742 15.7502 6.75022 13.7286 6.75022 11.2504V8.99991H4.87577C2.18221 8.99991 0 11.215 0 13.9485V53.5522C0 56.2766 2.18221 58.5004 4.87577 58.5004H31.5003V53.9996H4.87577C4.67188 53.9994 4.5002 53.7889 4.5002 53.552ZM44.9997 35.9999V27H36.0002V35.9999H44.9997ZM63.5446 49.615C62.6657 48.7354 61.2418 48.7354 60.3636 49.615L52.4097 57.5689L47.636 52.7959C46.7571 51.917 45.3333 51.917 44.4545 52.7959C43.5758 53.6748 43.5756 55.0987 44.4545 55.9773L50.8184 62.3411C51.2574 62.7802 51.8336 62.9996 52.4098 62.9996C52.9847 62.9996 53.5603 62.7802 54 62.3411L63.5446 52.7959C64.4234 51.917 64.4234 50.4939 63.5446 49.615Z" fill="currentColor"/>
</svg>
