<svg  id="_Слой_1" data-name="Слой 1" xmlns="http://www.w3.org/2000/svg" xmlns:xlink="http://www.w3.org/1999/xlink" viewBox="0 0 130.28 50.76">
  <defs>
    <style>
      .cls-1 {
        fill: url(#_Безымянный_градиент_11-2);
      }

      .cls-2 {
        fill: #1d1d1b;
        font-size: 9px;
      }

      .cls-2, .cls-3 {
        font-family: ArialNarrow-Italic, Arial;
        font-style: italic;
      }

      .cls-3 {
        fill: #a04995;
        font-size: 28px;
      }

      .cls-4 {
        fill: url(#_Безымянный_градиент_11);
      }
    </style>
    <linearGradient id="_Безымянный_градиент_11" data-name="Безымянный градиент 11" x1=".32" y1="13.49" x2="25.04" y2="13.49" gradientUnits="userSpaceOnUse">
      <stop offset="0" stop-color="#a04995"/>
      <stop offset="1" stop-color="#ea5d34"/>
    </linearGradient>
    <linearGradient id="_Безымянный_градиент_11-2" data-name="Безымянный градиент 11" x1=".95" y1="15.35" x2="25.67" y2="15.35" xlink:href="#_Безымянный_градиент_11"/>
  </defs>
  <text class="cls-2" transform="translate(0 34)"><tspan x="0" y="0">академия детского креатива</tspan></text>
  <text class="cls-3" transform="translate(26.81 24.02)"><tspan x="0" y="0">ИСКРА</tspan></text>
  <g>
    <path class="cls-4" d="M25.04,10.72l-5.18-.76-3.36-.49-1.39-2.81-2.43-4.92-2.17,4.4-1.65,3.33-2.13.31-6.41.94,4.11,4.01,2.07,2.01-.37,2.13-1.09,6.37,5.84-3.06,1.8-.95,2.8,1.47,4.84,2.54-1.06-6.19-.4-2.31,2.7-2.63,3.48-3.39ZM14.44,17.27l-.76,1.54-.85-1.73-2.05,1.08.38-2.24-1.81-.26,1.22-1.19-1.44-1.4,2.24-.33-.37-2.17,1.7.89.76-1.54.85,1.73,2.05-1.08-.39,2.23,1.82.27-1.22,1.19,1.44,1.4-2.25.32.38,2.18-1.7-.89Z"/>
    <path class="cls-1" d="M21.56,14.11l-2.07-2.01.37-2.14,1.09-6.37-5.84,3.07-1.8.95-2.8-1.47-4.84-2.55,1.06,6.19.4,2.32-2.7,2.63-3.48,3.39,5.18.75,3.36.49,1.39,2.82,2.43,4.92,2.17-4.4,1.65-3.34,2.13-.31,6.41-.93-4.11-4.01ZM15.76,15.98l.38,2.18-1.7-.89-.76,1.54-.85-1.73-2.05,1.08.38-2.24-1.81-.26,1.22-1.19-1.44-1.4,2.24-.33-.37-2.17,1.7.89.76-1.54.85,1.73,2.05-1.08-.39,2.23,1.82.27-1.22,1.19,1.44,1.4-2.25.32Z"/>
  </g>
</svg>