<svg width="136" height="41" viewBox="0 0 136 41" fill="none" xmlns="http://www.w3.org/2000/svg">
<path d="M2.13494 38.8345C1.82386 38.8345 1.54155 38.7759 1.288 38.6588C1.03445 38.5394 0.833097 38.3679 0.683949 38.1442C0.534801 37.9183 0.460227 37.6456 0.460227 37.326C0.460227 37.0448 0.515625 36.8168 0.62642 36.6421C0.737216 36.4652 0.885298 36.3267 1.07067 36.2266C1.25604 36.1264 1.46058 36.0519 1.6843 36.0029C1.91016 35.9517 2.13707 35.9112 2.36506 35.8814C2.66335 35.8431 2.90518 35.8143 3.09055 35.7951C3.27805 35.7738 3.41442 35.7387 3.49964 35.6897C3.587 35.6406 3.63068 35.5554 3.63068 35.434V35.4084C3.63068 35.0931 3.54439 34.848 3.3718 34.6733C3.20135 34.4986 2.94247 34.4112 2.59517 34.4112C2.23509 34.4112 1.95277 34.4901 1.74822 34.6477C1.54368 34.8054 1.39986 34.9737 1.31676 35.1527L0.600852 34.897C0.728693 34.5987 0.899148 34.3665 1.11222 34.2003C1.32741 34.032 1.56179 33.9148 1.81534 33.8487C2.07102 33.7806 2.32244 33.7465 2.5696 33.7465C2.72727 33.7465 2.90838 33.7656 3.11293 33.804C3.3196 33.8402 3.51882 33.9159 3.71058 34.0309C3.90447 34.146 4.06534 34.3196 4.19318 34.5519C4.32102 34.7841 4.38494 35.0952 4.38494 35.4851V38.7195H3.63068V38.0547H3.59233C3.54119 38.1612 3.45597 38.2752 3.33665 38.3967C3.21733 38.5181 3.05859 38.6215 2.86044 38.7067C2.66229 38.7919 2.42045 38.8345 2.13494 38.8345ZM2.25 38.157C2.5483 38.157 2.79972 38.0984 3.00426 37.9812C3.21094 37.864 3.36648 37.7127 3.47088 37.5274C3.57741 37.342 3.63068 37.147 3.63068 36.9425V36.2522C3.59872 36.2905 3.52841 36.3257 3.41974 36.3576C3.31321 36.3875 3.18963 36.4141 3.04901 36.4375C2.91051 36.4588 2.77521 36.478 2.64311 36.4951C2.51314 36.51 2.40767 36.5227 2.3267 36.5334C2.13068 36.559 1.94744 36.6005 1.77699 36.658C1.60866 36.7134 1.4723 36.7976 1.3679 36.9105C1.26563 37.0213 1.21449 37.1726 1.21449 37.3644C1.21449 37.6264 1.31143 37.8246 1.50533 37.9588C1.70135 38.0909 1.94957 38.157 2.25 38.157ZM5.76163 38.7195V33.8104H6.51589V35.9453H7.01447L8.77868 33.8104H9.75027L7.76873 36.1754L9.77583 38.7195H8.80424L7.19345 36.6485H6.51589V38.7195H5.76163ZM12.0402 38.8345C11.7291 38.8345 11.4468 38.7759 11.1933 38.6588C10.9397 38.5394 10.7384 38.3679 10.5892 38.1442C10.4401 37.9183 10.3655 37.6456 10.3655 37.326C10.3655 37.0448 10.4209 36.8168 10.5317 36.6421C10.6425 36.4652 10.7906 36.3267 10.9759 36.2266C11.1613 36.1264 11.3659 36.0519 11.5896 36.0029C11.8154 35.9517 12.0423 35.9112 12.2703 35.8814C12.5686 35.8431 12.8105 35.8143 12.9958 35.7951C13.1833 35.7738 13.3197 35.7387 13.4049 35.6897C13.4923 35.6406 13.536 35.5554 13.536 35.434V35.4084C13.536 35.0931 13.4497 34.848 13.2771 34.6733C13.1066 34.4986 12.8477 34.4112 12.5004 34.4112C12.1404 34.4112 11.858 34.4901 11.6535 34.6477C11.449 34.8054 11.3051 34.9737 11.222 35.1527L10.5061 34.897C10.634 34.5987 10.8044 34.3665 11.0175 34.2003C11.2327 34.032 11.4671 33.9148 11.7206 33.8487C11.9763 33.7806 12.2277 33.7465 12.4749 33.7465C12.6325 33.7465 12.8137 33.7656 13.0182 33.804C13.2249 33.8402 13.4241 33.9159 13.6159 34.0309C13.8097 34.146 13.9706 34.3196 14.0985 34.5519C14.2263 34.7841 14.2902 35.0952 14.2902 35.4851V38.7195H13.536V38.0547H13.4976C13.4465 38.1612 13.3612 38.2752 13.2419 38.3967C13.1226 38.5181 12.9639 38.6215 12.7657 38.7067C12.5676 38.7919 12.3257 38.8345 12.0402 38.8345ZM12.1553 38.157C12.4536 38.157 12.705 38.0984 12.9095 37.9812C13.1162 37.864 13.2718 37.7127 13.3762 37.5274C13.4827 37.342 13.536 37.147 13.536 36.9425V36.2522C13.504 36.2905 13.4337 36.3257 13.325 36.3576C13.2185 36.3875 13.0949 36.4141 12.9543 36.4375C12.8158 36.4588 12.6805 36.478 12.5484 36.4951C12.4184 36.51 12.3129 36.5227 12.232 36.5334C12.036 36.559 11.8527 36.6005 11.6823 36.658C11.5139 36.7134 11.3776 36.7976 11.2732 36.9105C11.1709 37.0213 11.1198 37.1726 11.1198 37.3644C11.1198 37.6264 11.2167 37.8246 11.4106 37.9588C11.6066 38.0909 11.8548 38.157 12.1553 38.157ZM15.1428 40.1257V38.0164H15.5518C15.652 37.912 15.7383 37.799 15.8107 37.6776C15.8832 37.5561 15.946 37.4123 15.9993 37.2461C16.0547 37.0778 16.1016 36.8732 16.1399 36.6325C16.1783 36.3896 16.2124 36.0966 16.2422 35.7536L16.4084 33.8104H19.5277V38.0164H20.282V40.1257H19.5277V38.7195H15.897V40.1257H15.1428ZM16.4084 38.0164H18.7734V34.5135H17.1115L16.9837 35.7536C16.9304 36.2671 16.8643 36.7156 16.7855 37.0991C16.7067 37.4826 16.581 37.7884 16.4084 38.0164ZM23.3414 38.8218C22.8683 38.8218 22.4603 38.7174 22.1173 38.5085C21.7764 38.2976 21.5132 38.0036 21.3279 37.6264C21.1446 37.2472 21.053 36.8061 21.053 36.3033C21.053 35.8004 21.1446 35.3573 21.3279 34.9737C21.5132 34.5881 21.771 34.2877 22.1013 34.0725C22.4337 33.8551 22.8215 33.7465 23.2646 33.7465C23.5203 33.7465 23.7728 33.7891 24.0221 33.8743C24.2714 33.9595 24.4983 34.098 24.7029 34.2898C24.9074 34.4794 25.0704 34.7308 25.1919 35.0441C25.3133 35.3573 25.374 35.7429 25.374 36.201V36.5206H21.5899V35.8686H24.607C24.607 35.5916 24.5516 35.3445 24.4408 35.1272C24.3321 34.9098 24.1766 34.7383 23.9742 34.6126C23.7739 34.4869 23.5374 34.424 23.2646 34.424C22.9642 34.424 22.7043 34.4986 22.4848 34.6477C22.2675 34.7948 22.1002 34.9865 21.983 35.223C21.8659 35.4595 21.8073 35.7131 21.8073 35.9837V36.4183C21.8073 36.7891 21.8712 37.1034 21.999 37.3612C22.129 37.6169 22.309 37.8118 22.5392 37.946C22.7693 38.0781 23.0367 38.1442 23.3414 38.1442C23.5395 38.1442 23.7185 38.1165 23.8783 38.0611C24.0402 38.0036 24.1798 37.9183 24.297 37.8054C24.4142 37.6904 24.5047 37.5476 24.5686 37.3772L25.2973 37.5817C25.2206 37.8289 25.0917 38.0462 24.9106 38.2337C24.7295 38.4191 24.5058 38.5639 24.2394 38.6683C23.9731 38.7706 23.6737 38.8218 23.3414 38.8218ZM29.2061 37.6968L30.9191 33.8104H31.635L29.5129 38.7195H28.8992L26.8154 33.8104H27.5186L29.2061 37.6968ZM27.2757 33.8104V38.7195H26.5214V33.8104H27.2757ZM31.1365 38.7195V33.8104H31.8907V38.7195H31.1365ZM34.0257 37.6073L36.3907 33.8104H37.26V38.7195H36.5058V34.9226L34.1535 38.7195H33.2714V33.8104H34.0257V37.6073ZM41.5946 38.7195V34.5007H40.2907C39.9966 34.5007 39.7654 34.5689 39.5971 34.7053C39.4288 34.8416 39.3446 35.0291 39.3446 35.2678C39.3446 35.5022 39.4203 35.6865 39.5716 35.8207C39.725 35.9549 39.9348 36.022 40.2012 36.022H41.7864V36.7252H40.2012C39.8688 36.7252 39.5822 36.6666 39.3414 36.5494C39.1007 36.4322 38.9153 36.2649 38.7853 36.0476C38.6554 35.8281 38.5904 35.5682 38.5904 35.2678C38.5904 34.9652 38.6586 34.7053 38.7949 34.4879C38.9313 34.2706 39.1262 34.1034 39.3798 33.9862C39.6355 33.869 39.9391 33.8104 40.2907 33.8104H42.3105V38.7195H41.5946ZM38.3219 38.7195L39.7154 36.2777H40.5336L39.1401 38.7195H38.3219ZM45.7023 40.1257V38.0164H46.1114C46.2116 37.912 46.2979 37.799 46.3703 37.6776C46.4427 37.5561 46.5056 37.4123 46.5589 37.2461C46.6143 37.0778 46.6611 36.8732 46.6995 36.6325C46.7378 36.3896 46.7719 36.0966 46.8018 35.7536L46.968 33.8104H50.0873V38.0164H50.8415V40.1257H50.0873V38.7195H46.4566V40.1257H45.7023ZM46.968 38.0164H49.333V34.5135H47.6711L47.5432 35.7536C47.49 36.2671 47.4239 36.7156 47.3451 37.0991C47.2662 37.4826 47.1405 37.7884 46.968 38.0164ZM53.9009 38.8218C53.4279 38.8218 53.0199 38.7174 52.6768 38.5085C52.3359 38.2976 52.0728 38.0036 51.8874 37.6264C51.7042 37.2472 51.6126 36.8061 51.6126 36.3033C51.6126 35.8004 51.7042 35.3573 51.8874 34.9737C52.0728 34.5881 52.3306 34.2877 52.6609 34.0725C52.9933 33.8551 53.381 33.7465 53.8242 33.7465C54.0799 33.7465 54.3324 33.7891 54.5817 33.8743C54.831 33.9595 55.0579 34.098 55.2624 34.2898C55.467 34.4794 55.63 34.7308 55.7514 35.0441C55.8729 35.3573 55.9336 35.7429 55.9336 36.201V36.5206H52.1495V35.8686H55.1665C55.1665 35.5916 55.1112 35.3445 55.0004 35.1272C54.8917 34.9098 54.7362 34.7383 54.5337 34.6126C54.3335 34.4869 54.0969 34.424 53.8242 34.424C53.5238 34.424 53.2638 34.4986 53.0444 34.6477C52.8271 34.7948 52.6598 34.9865 52.5426 35.223C52.4254 35.4595 52.3668 35.7131 52.3668 35.9837V36.4183C52.3668 36.7891 52.4308 37.1034 52.5586 37.3612C52.6886 37.6169 52.8686 37.8118 53.0987 37.946C53.3288 38.0781 53.5962 38.1442 53.9009 38.1442C54.0991 38.1442 54.2781 38.1165 54.4379 38.0611C54.5998 38.0036 54.7393 37.9183 54.8565 37.8054C54.9737 37.6904 55.0643 37.5476 55.1282 37.3772L55.8569 37.5817C55.7802 37.8289 55.6513 38.0462 55.4702 38.2337C55.2891 38.4191 55.0653 38.5639 54.799 38.6683C54.5327 38.7706 54.2333 38.8218 53.9009 38.8218ZM56.6239 34.5135V33.8104H60.6126V34.5135H59.0018V38.7195H58.2475V34.5135H56.6239ZM63.4522 38.8218C62.992 38.8218 62.5957 38.7131 62.2633 38.4958C61.9309 38.2784 61.6752 37.9791 61.4963 37.5977C61.3173 37.2163 61.2278 36.7806 61.2278 36.2905C61.2278 35.7919 61.3194 35.3519 61.5027 34.9705C61.688 34.587 61.9458 34.2877 62.2761 34.0725C62.6085 33.8551 62.9963 33.7465 63.4395 33.7465C63.7846 33.7465 64.0957 33.8104 64.3727 33.9382C64.6497 34.0661 64.8766 34.2451 65.0534 34.4752C65.2303 34.7053 65.34 34.9737 65.3826 35.2806H64.6284C64.5708 35.0568 64.443 34.8587 64.2449 34.6861C64.0488 34.5114 63.7846 34.424 63.4522 34.424C63.1582 34.424 62.9004 34.5007 62.6788 34.6541C62.4593 34.8054 62.2878 35.0196 62.1642 35.2965C62.0428 35.5714 61.9821 35.8942 61.9821 36.2649C61.9821 36.6442 62.0417 36.9745 62.161 37.2557C62.2825 37.537 62.4529 37.7553 62.6724 37.9109C62.894 38.0664 63.1539 38.1442 63.4522 38.1442C63.6483 38.1442 63.8262 38.1101 63.986 38.0419C64.1458 37.9737 64.2811 37.8757 64.3919 37.7479C64.5027 37.6201 64.5815 37.4666 64.6284 37.2877H65.3826C65.34 37.5774 65.2346 37.8384 65.0662 38.0707C64.9 38.3008 64.6795 38.484 64.4047 38.6204C64.1319 38.7546 63.8145 38.8218 63.4522 38.8218ZM66.4853 38.7195V33.8104H67.2395V35.9453H67.7381L69.5023 33.8104H70.4739L68.4924 36.1754L70.4995 38.7195H69.5279L67.9171 36.6485H67.2395V38.7195H66.4853ZM73.1114 38.8218C72.6682 38.8218 72.2794 38.7163 71.9449 38.5053C71.6125 38.2944 71.3525 37.9993 71.165 37.6201C70.9797 37.2408 70.887 36.7976 70.887 36.2905C70.887 35.7791 70.9797 35.3328 71.165 34.9514C71.3525 34.57 71.6125 34.2738 71.9449 34.0629C72.2794 33.8519 72.6682 33.7465 73.1114 33.7465C73.5546 33.7465 73.9424 33.8519 74.2748 34.0629C74.6093 34.2738 74.8692 34.57 75.0546 34.9514C75.2421 35.3328 75.3358 35.7791 75.3358 36.2905C75.3358 36.7976 75.2421 37.2408 75.0546 37.6201C74.8692 37.9993 74.6093 38.2944 74.2748 38.5053C73.9424 38.7163 73.5546 38.8218 73.1114 38.8218ZM73.1114 38.1442C73.4481 38.1442 73.7251 38.0579 73.9424 37.8853C74.1597 37.7127 74.3206 37.4858 74.425 37.2046C74.5294 36.9233 74.5816 36.6186 74.5816 36.2905C74.5816 35.9624 74.5294 35.6566 74.425 35.3732C74.3206 35.0899 74.1597 34.8608 73.9424 34.6861C73.7251 34.5114 73.4481 34.424 73.1114 34.424C72.7748 34.424 72.4978 34.5114 72.2805 34.6861C72.0631 34.8608 71.9023 35.0899 71.7979 35.3732C71.6934 35.6566 71.6412 35.9624 71.6412 36.2905C71.6412 36.6186 71.6934 36.9233 71.7979 37.2046C71.9023 37.4858 72.0631 37.7127 72.2805 37.8853C72.4978 38.0579 72.7748 38.1442 73.1114 38.1442ZM79.517 33.8104V34.5135H77.2415V38.7195H76.4872V33.8104H79.517ZM82.3575 38.8218C81.9143 38.8218 81.5255 38.7163 81.191 38.5053C80.8586 38.2944 80.5986 37.9993 80.4111 37.6201C80.2258 37.2408 80.1331 36.7976 80.1331 36.2905C80.1331 35.7791 80.2258 35.3328 80.4111 34.9514C80.5986 34.57 80.8586 34.2738 81.191 34.0629C81.5255 33.8519 81.9143 33.7465 82.3575 33.7465C82.8007 33.7465 83.1885 33.8519 83.5209 34.0629C83.8554 34.2738 84.1153 34.57 84.3007 34.9514C84.4882 35.3328 84.5819 35.7791 84.5819 36.2905C84.5819 36.7976 84.4882 37.2408 84.3007 37.6201C84.1153 37.9993 83.8554 38.2944 83.5209 38.5053C83.1885 38.7163 82.8007 38.8218 82.3575 38.8218ZM82.3575 38.1442C82.6942 38.1442 82.9711 38.0579 83.1885 37.8853C83.4058 37.7127 83.5667 37.4858 83.6711 37.2046C83.7755 36.9233 83.8277 36.6186 83.8277 36.2905C83.8277 35.9624 83.7755 35.6566 83.6711 35.3732C83.5667 35.0899 83.4058 34.8608 83.1885 34.6861C82.9711 34.5114 82.6942 34.424 82.3575 34.424C82.0209 34.424 81.7439 34.5114 81.5265 34.6861C81.3092 34.8608 81.1483 35.0899 81.0439 35.3732C80.9395 35.6566 80.8873 35.9624 80.8873 36.2905C80.8873 36.6186 80.9395 36.9233 81.0439 37.2046C81.1483 37.4858 81.3092 37.7127 81.5265 37.8853C81.7439 38.0579 82.0209 38.1442 82.3575 38.1442ZM88.2646 38.7195V33.8104H89.0188V35.9453H89.5174L91.2816 33.8104H92.2532L90.2717 36.1754L92.2788 38.7195H91.3072L89.6964 36.6485H89.0188V38.7195H88.2646ZM93.0985 40.5604V33.8104H93.8272V34.5902H93.9167C93.9721 34.505 94.0488 34.3963 94.1468 34.2642C94.247 34.13 94.3897 34.0107 94.5751 33.9063C94.7626 33.7997 95.0162 33.7465 95.3358 33.7465C95.7491 33.7465 96.1135 33.8498 96.4288 34.0565C96.7441 34.2632 96.9902 34.5561 97.1671 34.9354C97.3439 35.3147 97.4324 35.7621 97.4324 36.2777C97.4324 36.7976 97.3439 37.2482 97.1671 37.6296C96.9902 38.0089 96.7452 38.3029 96.432 38.5117C96.1188 38.7184 95.7576 38.8218 95.3485 38.8218C95.0332 38.8218 94.7807 38.7696 94.5911 38.6652C94.4015 38.5586 94.2555 38.4382 94.1532 38.304C94.051 38.1676 93.9721 38.0547 93.9167 37.9652H93.8528V40.5604H93.0985ZM93.84 36.2649C93.84 36.6357 93.8944 36.9627 94.003 37.2461C94.1117 37.5274 94.2704 37.7479 94.4792 37.9077C94.688 38.0654 94.9437 38.1442 95.2463 38.1442C95.5616 38.1442 95.8248 38.0611 96.0357 37.8949C96.2488 37.7266 96.4086 37.5007 96.5151 37.2174C96.6238 36.9318 96.6781 36.6144 96.6781 36.2649C96.6781 35.9198 96.6248 35.6087 96.5183 35.3317C96.4139 35.0526 96.2551 34.8321 96.0421 34.6701C95.8311 34.5061 95.5659 34.424 95.2463 34.424C94.9395 34.424 94.6816 34.5018 94.4728 34.6573C94.264 34.8107 94.1064 35.0259 93.9998 35.3029C93.8933 35.5778 93.84 35.8985 93.84 36.2649ZM100.641 38.8218C100.168 38.8218 99.7601 38.7174 99.4171 38.5085C99.0762 38.2976 98.813 38.0036 98.6277 37.6264C98.4444 37.2472 98.3528 36.8061 98.3528 36.3033C98.3528 35.8004 98.4444 35.3573 98.6277 34.9737C98.813 34.5881 99.0708 34.2877 99.4011 34.0725C99.7335 33.8551 100.121 33.7465 100.564 33.7465C100.82 33.7465 101.073 33.7891 101.322 33.8743C101.571 33.9595 101.798 34.098 102.003 34.2898C102.207 34.4794 102.37 34.7308 102.492 35.0441C102.613 35.3573 102.674 35.7429 102.674 36.201V36.5206H98.8897V35.8686H101.907C101.907 35.5916 101.851 35.3445 101.741 35.1272C101.632 34.9098 101.476 34.7383 101.274 34.6126C101.074 34.4869 100.837 34.424 100.564 34.424C100.264 34.424 100.004 34.4986 99.7846 34.6477C99.5673 34.7948 99.4 34.9865 99.2828 35.223C99.1657 35.4595 99.1071 35.7131 99.1071 35.9837V36.4183C99.1071 36.7891 99.171 37.1034 99.2988 37.3612C99.4288 37.6169 99.6088 37.8118 99.839 37.946C100.069 38.0781 100.336 38.1442 100.641 38.1442C100.839 38.1442 101.018 38.1165 101.178 38.0611C101.34 38.0036 101.48 37.9183 101.597 37.8054C101.714 37.6904 101.805 37.5476 101.868 37.3772L102.597 37.5817C102.52 37.8289 102.392 38.0462 102.21 38.2337C102.029 38.4191 101.806 38.5639 101.539 38.6683C101.273 38.7706 100.974 38.8218 100.641 38.8218ZM105.266 38.8345C104.955 38.8345 104.672 38.7759 104.419 38.6588C104.165 38.5394 103.964 38.3679 103.815 38.1442C103.666 37.9183 103.591 37.6456 103.591 37.326C103.591 37.0448 103.646 36.8168 103.757 36.6421C103.868 36.4652 104.016 36.3267 104.202 36.2266C104.387 36.1264 104.591 36.0519 104.815 36.0029C105.041 35.9517 105.268 35.9112 105.496 35.8814C105.794 35.8431 106.036 35.8143 106.221 35.7951C106.409 35.7738 106.545 35.7387 106.631 35.6897C106.718 35.6406 106.762 35.5554 106.762 35.434V35.4084C106.762 35.0931 106.675 34.848 106.503 34.6733C106.332 34.4986 106.073 34.4112 105.726 34.4112C105.366 34.4112 105.084 34.4901 104.879 34.6477C104.675 34.8054 104.531 34.9737 104.448 35.1527L103.732 34.897C103.86 34.5987 104.03 34.3665 104.243 34.2003C104.458 34.032 104.693 33.9148 104.946 33.8487C105.202 33.7806 105.453 33.7465 105.7 33.7465C105.858 33.7465 106.039 33.7656 106.244 33.804C106.45 33.8402 106.65 33.9159 106.841 34.0309C107.035 34.146 107.196 34.3196 107.324 34.5519C107.452 34.7841 107.516 35.0952 107.516 35.4851V38.7195H106.762V38.0547H106.723C106.672 38.1612 106.587 38.2752 106.468 38.3967C106.348 38.5181 106.189 38.6215 105.991 38.7067C105.793 38.7919 105.551 38.8345 105.266 38.8345ZM105.381 38.157C105.679 38.157 105.931 38.0984 106.135 37.9812C106.342 37.864 106.497 37.7127 106.602 37.5274C106.708 37.342 106.762 37.147 106.762 36.9425V36.2522C106.73 36.2905 106.659 36.3257 106.551 36.3576C106.444 36.3875 106.32 36.4141 106.18 36.4375C106.041 36.4588 105.906 36.478 105.774 36.4951C105.644 36.51 105.539 36.5227 105.458 36.5334C105.262 36.559 105.078 36.6005 104.908 36.658C104.74 36.7134 104.603 36.7976 104.499 36.9105C104.396 37.0213 104.345 37.1726 104.345 37.3644C104.345 37.6264 104.442 37.8246 104.636 37.9588C104.832 38.0909 105.08 38.157 105.381 38.157ZM108.225 34.5135V33.8104H112.213V34.5135H110.602V38.7195H109.848V34.5135H108.225ZM114.068 37.6073L116.433 33.8104H117.302V38.7195H116.548V34.9226L114.195 38.7195H113.313V33.8104H114.068V37.6073ZM118.684 38.7195V33.8104H120.691C121.219 33.8104 121.639 33.9297 121.95 34.1683C122.261 34.407 122.416 34.7223 122.416 35.1144C122.416 35.4127 122.328 35.6438 122.151 35.8079C121.974 35.9698 121.747 36.0796 121.47 36.1371C121.652 36.1627 121.827 36.2266 121.998 36.3289C122.17 36.4311 122.313 36.5718 122.426 36.7507C122.539 36.9276 122.595 37.1449 122.595 37.4027C122.595 37.6541 122.532 37.8789 122.404 38.0771C122.276 38.2752 122.093 38.4318 121.854 38.5469C121.615 38.662 121.33 38.7195 120.997 38.7195H118.684ZM119.399 38.0291H120.997C121.257 38.0291 121.461 37.9674 121.608 37.8438C121.755 37.7202 121.828 37.5519 121.828 37.3388C121.828 37.0852 121.755 36.886 121.608 36.7411C121.461 36.5941 121.257 36.5206 120.997 36.5206H119.399V38.0291ZM119.399 35.8686H120.691C120.893 35.8686 121.067 35.8409 121.212 35.7855C121.356 35.728 121.467 35.647 121.544 35.5426C121.623 35.4361 121.662 35.3104 121.662 35.1655C121.662 34.9588 121.576 34.7969 121.403 34.6797C121.231 34.5604 120.993 34.5007 120.691 34.5007H119.399V35.8686ZM125.182 38.8345C124.871 38.8345 124.588 38.7759 124.335 38.6588C124.081 38.5394 123.88 38.3679 123.731 38.1442C123.582 37.9183 123.507 37.6456 123.507 37.326C123.507 37.0448 123.563 36.8168 123.673 36.6421C123.784 36.4652 123.932 36.3267 124.118 36.2266C124.303 36.1264 124.507 36.0519 124.731 36.0029C124.957 35.9517 125.184 35.9112 125.412 35.8814C125.71 35.8431 125.952 35.8143 126.137 35.7951C126.325 35.7738 126.461 35.7387 126.547 35.6897C126.634 35.6406 126.678 35.5554 126.678 35.434V35.4084C126.678 35.0931 126.591 34.848 126.419 34.6733C126.248 34.4986 125.989 34.4112 125.642 34.4112C125.282 34.4112 125 34.4901 124.795 34.6477C124.591 34.8054 124.447 34.9737 124.364 35.1527L123.648 34.897C123.776 34.5987 123.946 34.3665 124.159 34.2003C124.374 34.032 124.609 33.9148 124.862 33.8487C125.118 33.7806 125.369 33.7465 125.616 33.7465C125.774 33.7465 125.955 33.7656 126.16 33.804C126.366 33.8402 126.566 33.9159 126.757 34.0309C126.951 34.146 127.112 34.3196 127.24 34.5519C127.368 34.7841 127.432 35.0952 127.432 35.4851V38.7195H126.678V38.0547H126.639C126.588 38.1612 126.503 38.2752 126.384 38.3967C126.264 38.5181 126.105 38.6215 125.907 38.7067C125.709 38.7919 125.467 38.8345 125.182 38.8345ZM125.297 38.157C125.595 38.157 125.847 38.0984 126.051 37.9812C126.258 37.864 126.413 37.7127 126.518 37.5274C126.624 37.342 126.678 37.147 126.678 36.9425V36.2522C126.646 36.2905 126.575 36.3257 126.467 36.3576C126.36 36.3875 126.237 36.4141 126.096 36.4375C125.957 36.4588 125.822 36.478 125.69 36.4951C125.56 36.51 125.455 36.5227 125.374 36.5334C125.178 36.559 124.994 36.6005 124.824 36.658C124.656 36.7134 124.519 36.7976 124.415 36.9105C124.313 37.0213 124.261 37.1726 124.261 37.3644C124.261 37.6264 124.358 37.8246 124.552 37.9588C124.748 38.0909 124.996 38.157 125.297 38.157Z" fill="#1D1D1B"/>
<path d="M30.7313 6.63636H33.1574V22.6648H33.3563L44.4927 6.63636H46.879V27H44.4131V11.0114H44.2142L33.1177 27H30.7313V6.63636ZM68.1997 13H65.7338C65.5879 12.2907 65.3327 11.6676 64.9682 11.1307C64.6102 10.5938 64.1727 10.143 63.6557 9.77841C63.1452 9.4072 62.5785 9.12879 61.9554 8.94318C61.3323 8.75758 60.6826 8.66477 60.0065 8.66477C58.7735 8.66477 57.6566 8.97633 56.6557 9.59943C55.6613 10.2225 54.8692 11.1406 54.2792 12.3537C53.6959 13.5668 53.4042 15.0549 53.4042 16.8182C53.4042 18.5814 53.6959 20.0696 54.2792 21.2827C54.8692 22.4957 55.6613 23.4138 56.6557 24.0369C57.6566 24.66 58.7735 24.9716 60.0065 24.9716C60.6826 24.9716 61.3323 24.8788 61.9554 24.6932C62.5785 24.5076 63.1452 24.2325 63.6557 23.8679C64.1727 23.4967 64.6102 23.0426 64.9682 22.5057C65.3327 21.9621 65.5879 21.339 65.7338 20.6364H68.1997C68.0141 21.6771 67.676 22.6084 67.1855 23.4304C66.695 24.2524 66.0851 24.9517 65.3559 25.5284C64.6268 26.0985 63.8081 26.5327 62.9 26.831C61.9985 27.1293 61.034 27.2784 60.0065 27.2784C58.2698 27.2784 56.7253 26.8542 55.373 26.0057C54.0207 25.1572 52.9568 23.9508 52.1812 22.3864C51.4057 20.822 51.0179 18.9659 51.0179 16.8182C51.0179 14.6705 51.4057 12.8144 52.1812 11.25C52.9568 9.68561 54.0207 8.47917 55.373 7.63068C56.7253 6.7822 58.2698 6.35795 60.0065 6.35795C61.034 6.35795 61.9985 6.5071 62.9 6.8054C63.8081 7.10369 64.6268 7.54119 65.3559 8.1179C66.0851 8.68797 66.695 9.384 67.1855 10.206C67.676 11.0213 68.0141 11.9527 68.1997 13ZM84.156 27L77.156 17.6534H74.6503V27H72.1844V6.63636H74.6503V15.4659H75.7242L83.8776 6.63636H86.8208L78.5878 15.5852L87.0992 27H84.156ZM90.286 27V6.63636H97.1667C98.7642 6.63636 100.07 6.92472 101.084 7.50142C102.105 8.0715 102.861 8.84375 103.351 9.81818C103.842 10.7926 104.087 11.8797 104.087 13.0795C104.087 14.2794 103.842 15.3698 103.351 16.3509C102.867 17.3319 102.118 18.1141 101.104 18.6974C100.09 19.2741 98.7907 19.5625 97.2064 19.5625H92.2746V17.375H97.1269C98.2206 17.375 99.099 17.1861 99.7618 16.8082C100.425 16.4304 100.905 15.92 101.204 15.277C101.509 14.6274 101.661 13.8949 101.661 13.0795C101.661 12.2642 101.509 11.535 101.204 10.892C100.905 10.2491 100.421 9.74526 99.7519 9.38068C99.0824 9.00947 98.1941 8.82386 97.0871 8.82386H92.7519V27H90.286ZM106.817 27H104.231L111.709 6.63636H114.254L121.731 27H119.146L113.061 9.85795H112.902L106.817 27ZM107.771 19.0455H118.192V21.233H107.771V19.0455Z" fill="#A04995"/>
<path d="M26.3983 15.0751L20.9372 14.2957L17.3949 13.7932L15.9295 10.9115L13.3676 5.86597L11.0799 10.3782L9.34032 13.7932L7.09474 14.1111L0.336914 15.0751L4.66994 19.1874L6.85226 21.2487L6.46218 23.4331L5.31304 29.9656L11.4699 26.8275L13.3676 25.8533L16.3195 27.3608L21.4222 29.9656L20.3047 23.6176L19.883 21.2487L22.7295 18.5516L26.3983 15.0751ZM15.2231 21.7922L14.4219 23.3715L13.5258 21.5974L11.3645 22.7049L11.7651 20.4078L9.85691 20.1411L11.1431 18.9208L9.62498 17.4851L11.9865 17.1466L11.5964 14.9213L13.3887 15.834L14.1899 14.2547L15.0861 16.0288L17.2473 14.9213L16.8361 17.2082L18.7549 17.4851L17.4687 18.7054L18.9868 20.1411L16.6147 20.4693L17.0154 22.7049L15.2231 21.7922Z" fill="url(#paint0_linear_304_1798)"/>
<path d="M22.7293 18.5516L20.547 16.4903L20.9371 14.2957L22.0862 7.76318L15.9293 10.9115L14.0317 11.8858L11.0797 10.3782L5.9771 7.76318L7.09462 14.1111L7.51633 16.4903L4.66981 19.1874L1.00098 22.6639L6.46206 23.4331L10.0044 23.9356L11.4698 26.8275L14.0317 31.8731L16.3194 27.3608L18.059 23.9356L20.3045 23.6177L27.0624 22.6639L22.7293 18.5516ZM16.6146 20.4693L17.0152 22.7049L15.223 21.7922L14.4218 23.3715L13.5256 21.5974L11.3644 22.7049L11.765 20.4078L9.85679 20.1412L11.143 18.9208L9.62485 17.4851L11.9864 17.1467L11.5963 14.9213L13.3886 15.834L14.1898 14.2547L15.0859 16.0288L17.2472 14.9213L16.836 17.2082L18.7548 17.4851L17.4686 18.7054L18.9867 20.1412L16.6146 20.4693Z" fill="url(#paint1_linear_304_1798)"/>
<defs>
<linearGradient id="paint0_linear_304_1798" x1="0.336914" y1="17.9158" x2="26.3983" y2="17.9158" gradientUnits="userSpaceOnUse">
<stop stop-color="#A04995"/>
<stop offset="1" stop-color="#EA5D34"/>
</linearGradient>
<linearGradient id="paint1_linear_304_1798" x1="1.00098" y1="19.8232" x2="27.0624" y2="19.8232" gradientUnits="userSpaceOnUse">
<stop stop-color="#A04995"/>
<stop offset="1" stop-color="#EA5D34"/>
</linearGradient>
</defs>
</svg>
