<svg width="72" height="72" viewBox="0 0 72 72" fill="currentColor" xmlns="http://www.w3.org/2000/svg">
<path d="M71.192 10.8763C71.4241 10.8128 71.6289 10.6748 71.7749 10.4835C71.9209 10.2923 72 10.0584 72 9.81786C72 9.57731 71.9209 9.34343 71.7749 9.15218C71.6289 8.96094 71.4241 8.82294 71.192 8.75942L36.2647 0.0320995C36.0897 -0.0106998 35.907 -0.0106998 35.732 0.0320995L0.808006 8.76591C0.575876 8.82944 0.37106 8.96744 0.225069 9.15868C0.0790785 9.34992 0 9.58381 0 9.82436C0 10.0649 0.0790785 10.2988 0.225069 10.49C0.37106 10.6813 0.575876 10.8193 0.808006 10.8828L16.0042 14.675V27.8309C16.0042 28.3765 16.1878 28.9062 16.5254 29.3349C16.863 29.7636 17.335 30.0664 17.8656 30.1946C22.4394 31.1686 31.3888 34.0907 36.0244 33.8667C40.6209 34.1069 49.6678 31.1784 54.1864 30.1946C54.7154 30.0639 55.1853 29.7597 55.521 29.3306C55.8566 28.9015 56.0387 28.3724 56.038 27.8277V14.6653L68.3821 11.5809V21.5127C67.9333 21.7555 67.5783 22.1408 67.3734 22.6079C67.1684 23.0749 67.1251 23.597 67.2503 24.0914C67.3756 24.5858 67.6622 25.0243 68.0649 25.3376C68.4676 25.6508 68.9633 25.8209 69.4736 25.8209C69.9838 25.8209 70.4795 25.6508 70.8822 25.3376C71.2849 25.0243 71.5715 24.5858 71.6968 24.0914C71.8221 23.597 71.7788 23.0749 71.5738 22.6079C71.3688 22.1408 71.0138 21.7555 70.565 21.5127V11.0386L71.192 10.8763ZM53.8421 27.8309C53.8417 27.8891 53.8221 27.9455 53.7862 27.9914C53.7504 28.0372 53.7003 28.0698 53.6439 28.0842L42.3036 30.9186C35.1116 33.2238 25.4117 29.74 18.3821 28.0842C18.326 28.0697 18.2764 28.0369 18.2411 27.9911C18.2057 27.9452 18.1868 27.8888 18.1872 27.8309V23.529C22.735 24.529 31.4051 27.3309 36.0114 27.1004C40.5819 27.3277 49.356 24.503 53.8421 23.529V27.8309ZM53.8421 21.279L42.3036 24.1621C35.0823 26.4835 25.2525 22.9381 18.1904 21.279V15.2205L35.732 19.6036C35.9053 19.6513 36.0882 19.6513 36.2615 19.6036L53.8388 15.214L53.8421 21.279ZM35.9984 17.4218L5.57347 9.81786L35.9984 2.21393L66.4265 9.81786L35.9984 17.4218ZM24.3625 72H2.52643C2.23722 71.9991 1.96009 71.8839 1.75559 71.6795C1.55108 71.4751 1.43581 71.1982 1.43495 70.9091V15.6393C1.43495 15.35 1.54995 15.0725 1.75464 14.8679C1.95933 14.6633 2.23695 14.5484 2.52643 14.5484C2.81591 14.5484 3.09353 14.6633 3.29822 14.8679C3.50291 15.0725 3.61791 15.35 3.61791 15.6393V69.8052H24.3625C24.6537 69.8052 24.9329 69.9208 25.1388 70.1266C25.3448 70.3324 25.4604 70.6115 25.4604 70.9026C25.4604 71.1936 25.3448 71.4728 25.1388 71.6786C24.9329 71.8844 24.6537 72 24.3625 72ZM70.5618 30.1946V70.9091C70.5618 71.1984 70.4468 71.4759 70.2421 71.6805C70.0374 71.8851 69.7598 72 69.4703 72H47.644C47.3546 72 47.0769 71.8851 46.8723 71.6805C46.6676 71.4759 46.5526 71.1984 46.5526 70.9091C46.5526 70.6198 46.6676 70.3423 46.8723 70.1377C47.0769 69.9331 47.3546 69.8182 47.644 69.8182H68.3788V30.1946C68.3788 29.9053 68.4938 29.6278 68.6985 29.4232C68.9032 29.2186 69.1808 29.1037 69.4703 29.1037C69.7598 29.1037 70.0374 29.2186 70.2421 29.4232C70.4468 29.6278 70.5618 29.9053 70.5618 30.1946ZM24.3625 64.7272H17.0795C16.79 64.7272 16.5124 64.6123 16.3077 64.4077C16.103 64.2031 15.988 63.9257 15.988 63.6363C15.9828 62.0018 15.3309 60.4357 14.1745 59.28C13.0182 58.1242 11.4513 57.4726 9.81594 57.4675C9.67233 57.4679 9.53005 57.44 9.39725 57.3853C9.26445 57.3307 9.14374 57.2504 9.04204 57.1491C8.94035 57.0477 8.85966 56.9273 8.8046 56.7948C8.74955 56.6622 8.72121 56.5201 8.72121 56.3765V17.0906C8.72121 16.8013 8.8362 16.5238 9.0409 16.3192C9.24559 16.1146 9.52321 15.9997 9.81269 15.9997C10.1022 15.9997 10.3798 16.1146 10.5845 16.3192C10.7892 16.5238 10.9042 16.8013 10.9042 17.0906V55.3441C12.7301 55.5867 14.4254 56.4234 15.7282 57.725C17.031 59.0265 17.8688 60.7205 18.1125 62.5454H24.3625C24.6519 62.5454 24.9296 62.6603 25.1342 62.8649C25.3389 63.0695 25.4539 63.347 25.4539 63.6363C25.4539 63.9257 25.3389 64.2031 25.1342 64.4077C24.9296 64.6123 24.6519 64.7272 24.3625 64.7272ZM47.6505 62.5454H53.9038C54.1472 60.721 54.9847 59.0273 56.2868 57.7259C57.589 56.4244 59.2835 55.5874 61.1088 55.3441V17.0906C61.1088 16.8013 61.2238 16.5238 61.4285 16.3192C61.6332 16.1146 61.9108 15.9997 62.2003 15.9997C62.4898 15.9997 62.7674 16.1146 62.9721 16.3192C63.1768 16.5238 63.2918 16.8013 63.2918 17.0906V56.3765C63.2922 56.5199 63.2643 56.662 63.2096 56.7945C63.1549 56.9271 63.0745 57.0475 62.9731 57.1489C62.8716 57.2503 62.7511 57.3306 62.6185 57.3853C62.4859 57.44 62.3438 57.4679 62.2003 57.4675C60.5652 57.4734 58.9988 58.1253 57.8426 59.2809C56.6865 60.4365 56.0343 62.0021 56.0283 63.6363C56.0287 63.7797 56.0008 63.9217 55.9461 64.0543C55.8914 64.1869 55.811 64.3073 55.7095 64.4087C55.6081 64.5101 55.4876 64.5904 55.355 64.6451C55.2224 64.6997 55.0803 64.7277 54.9368 64.7272H47.644C47.3546 64.7272 47.0769 64.6123 46.8723 64.4077C46.6676 64.2031 46.5526 63.9257 46.5526 63.6363C46.5526 63.347 46.6676 63.0695 46.8723 62.8649C47.0769 62.6603 47.3546 62.5454 47.644 62.5454H47.6505ZM44.009 62.1818V70.9091C44.0075 71.0884 43.9621 71.2646 43.8767 71.4223C43.7913 71.5799 43.6686 71.7143 43.5192 71.8136C43.3699 71.9129 43.1985 71.9742 43.0199 71.9919C42.8414 72.0097 42.6613 71.9835 42.4953 71.9156L35.9984 69.1851L29.5015 71.9156C29.3353 71.9833 29.155 72.0095 28.9764 71.9917C28.7977 71.9738 28.6262 71.9127 28.4766 71.8134C28.327 71.7142 28.204 71.5799 28.1182 71.4223C28.0325 71.2647 27.9865 71.0885 27.9845 70.9091V62.1818C27.9845 61.8924 28.0995 61.615 28.3042 61.4104C28.5089 61.2058 28.7865 61.0909 29.0759 61.0909C29.3654 61.0909 29.643 61.2058 29.8477 61.4104C30.0524 61.615 30.1674 61.8924 30.1674 62.1818V69.2662C31.142 68.987 35.9659 66.4902 36.4142 66.9935L41.8098 69.2662V62.1818C41.8098 61.8924 41.9248 61.615 42.1295 61.4104C42.3342 61.2058 42.6118 61.0909 42.9013 61.0909C43.1908 61.0909 43.4684 61.2058 43.6731 61.4104C43.8778 61.615 43.9928 61.8924 43.9928 62.1818H44.009ZM48.0988 52.2986L46.8774 49.0908C47.4102 47.2953 48.8752 45.2791 47.6765 44.581L44.8017 42.7044C44.152 40.8959 44.1812 38.4641 42.7941 38.5875L39.367 38.7596C37.8955 37.7596 36.3525 35.6654 35.3227 36.6037L32.646 38.7596C30.7294 38.8018 28.4003 38.0355 28.0982 39.3894L27.2016 42.7044C25.7203 43.8375 23.3424 44.6135 23.9044 45.883L25.1258 49.0908C24.5931 50.883 23.128 52.9025 24.3267 53.5973L27.2016 55.4772L28.0982 58.7889C28.423 60.1363 30.7489 59.3798 32.646 59.4382C33.1203 59.7142 35.4202 61.9577 36.0049 61.8344C36.5798 61.9675 38.9057 59.7045 39.367 59.4382C41.1212 59.3895 43.59 60.1558 43.9148 58.7889L44.8114 55.4772C46.2797 54.3376 48.6543 53.5713 48.0923 52.2986H48.0988ZM44.688 49.4804L45.747 52.2531L43.2586 53.8765C42.6544 54.133 42.2549 56.8473 42.0275 57.3701C41.4428 57.4285 38.7596 56.9675 38.321 57.4642L36.0049 59.3246C35.5274 59.0421 33.6108 57.1201 33.0066 57.2239C32.9513 57.2239 30.044 57.3701 29.9855 57.3701C29.7516 56.8311 29.3618 54.1428 28.7544 53.8765L26.266 52.2531C26.3895 51.6752 27.6629 49.2791 27.325 48.7012L26.266 45.9284L28.7544 44.305C29.3586 44.0486 29.7581 41.3343 29.9855 40.8115C30.5702 40.7498 33.2502 41.2141 33.692 40.7174L36.0049 38.8537C36.5181 39.1557 38.4022 41.094 39.0584 40.9576L42.0275 40.8115L42.8006 43.6752C42.8558 44.3245 45.3182 45.5486 45.747 45.9284C45.6138 46.5031 44.3436 48.9057 44.6815 49.4804H44.688ZM36.0049 44.3635C34.7505 44.3635 33.5474 44.8615 32.6604 45.7481C31.7735 46.6346 31.2751 47.837 31.2751 49.0908C31.2751 50.3445 31.7735 51.547 32.6604 52.4335C33.5474 53.32 34.7505 53.8181 36.0049 53.8181C37.2593 53.8172 38.462 53.3183 39.3484 52.4312C40.2347 51.544 40.7322 50.3413 40.7314 49.0875C40.7305 47.8338 40.2314 46.6317 39.3438 45.7458C38.4562 44.8599 37.2528 44.3626 35.9984 44.3635H36.0049ZM36.0049 51.6363C35.3294 51.6363 34.6816 51.3681 34.204 50.8907C33.7264 50.4133 33.4581 49.7659 33.4581 49.0908C33.4581 48.4157 33.7264 47.7682 34.204 47.2909C34.6816 46.8135 35.3294 46.5453 36.0049 46.5453C36.6472 46.5921 37.2479 46.8803 37.6861 47.3519C38.1243 47.8236 38.3675 48.4437 38.3666 49.0873C38.3658 49.731 38.1211 50.3504 37.6816 50.8209C37.2422 51.2915 36.6408 51.5782 35.9984 51.6233L36.0049 51.6363Z" fill="currentColor"/>
</svg>
